<svg width="68" height="68" viewBox="0 0 68 68" fill="none" xmlns="http://www.w3.org/2000/svg">
<g opacity="0.3" filter="url(#filter0_f_837_36167)">
<circle cx="34" cy="34" r="10" fill="#E0B531"/>
</g>
<path fill-rule="evenodd" clip-rule="evenodd" d="M27.7292 26.6667C27.7292 26.1489 28.1489 25.7292 28.6667 25.7292H39.3334C39.8511 25.7292 40.2709 26.1489 40.2709 26.6667C40.2709 27.1845 39.8511 27.6042 39.3334 27.6042H28.6667C28.1489 27.6042 27.7292 27.1845 27.7292 26.6667Z" fill="#E0B531"/>
<path fill-rule="evenodd" clip-rule="evenodd" d="M38.7575 32.1895L38.7616 32.1743C38.7655 32.16 38.7719 32.1369 38.7809 32.1063C38.799 32.0449 38.8273 31.9542 38.8662 31.8442C38.9451 31.6216 39.0632 31.3323 39.2222 31.0497C39.574 30.4243 39.9568 30.1146 40.3329 30.1146C40.8221 30.1146 41.2183 30.5108 41.2183 31C41.2183 31.2134 41.0481 31.5743 40.4608 32.0589C39.9081 32.5148 39.141 32.9513 38.3311 33.336C37.5288 33.7171 36.7213 34.0303 36.1111 34.249C35.8069 34.358 35.5539 34.4427 35.3779 34.4999C35.29 34.5285 35.2214 34.5501 35.1753 34.5645L35.1237 34.5804L35.1114 34.5842L35.1087 34.585C34.6955 34.709 34.4607 35.1446 34.5846 35.5579C34.7086 35.9711 35.1441 36.2057 35.5574 36.0817L35.3329 35.3334C35.5574 36.0817 35.5572 36.0817 35.5574 36.0817L35.5596 36.081L35.5642 36.0796L35.5804 36.0747L35.6403 36.0562C35.6919 36.0401 35.7665 36.0165 35.8609 35.9859C36.0494 35.9246 36.3173 35.8348 36.6381 35.7199C37.2779 35.4906 38.1371 35.158 39.0015 34.7474C39.8581 34.3405 40.7578 33.8394 41.4551 33.2641C42.1177 32.7175 42.7808 31.9533 42.7808 31C42.7808 29.6479 41.6851 28.5521 40.3329 28.5521C39.0424 28.5521 38.2585 29.5758 37.8603 30.2837C37.6443 30.6678 37.4916 31.0452 37.3934 31.3226C37.3438 31.4625 37.307 31.5802 37.2821 31.6647C37.2696 31.707 37.2601 31.7411 37.2534 31.7659L37.2455 31.7957L37.2431 31.8051L37.2422 31.8083L37.2419 31.8096C37.2419 31.8098 37.2417 31.8106 37.9991 31.9999L37.2419 31.8096C37.1373 32.2282 37.3915 32.6533 37.8101 32.758C38.2286 32.8626 38.6527 32.6079 38.7575 32.1895ZM29.885 41.3334C29.885 40.9019 30.2348 40.5521 30.6663 40.5521H37.3329C37.7644 40.5521 38.1142 40.9019 38.1142 41.3334C38.1142 41.7648 37.7644 42.1146 37.3329 42.1146H30.6663C30.2348 42.1146 29.885 41.7648 29.885 41.3334Z" fill="#E0B531"/>
<path d="M32.6667 37.3333H35.3329C35.3329 37.3333 39.3329 33.3333 39.3329 29.3333V26.6666H28.6667V29.3333C28.6667 33.3333 32.6667 37.3333 32.6667 37.3333Z" fill="#E0B531"/>
<path d="M30.6663 40V41.3333H37.3329V40C37.3329 39.2633 36.7363 38.6666 35.9996 38.6666H31.9996C31.2629 38.6666 30.6663 39.2633 30.6663 40Z" fill="#E0B531"/>
<path fill-rule="evenodd" clip-rule="evenodd" d="M25.2183 31C25.2183 29.6479 26.314 28.5521 27.6662 28.5521C28.9568 28.5521 29.7406 29.5758 30.1388 30.2837C30.3548 30.6678 30.5075 31.0452 30.6057 31.3226C30.6553 31.4625 30.6921 31.5802 30.717 31.6647C30.7295 31.707 30.739 31.7411 30.7457 31.7659L30.7536 31.7957L30.7561 31.8051L30.7569 31.8083L30.7572 31.8096C30.7572 31.8096 30.7574 31.8106 29.9995 32L30.7572 31.8096C30.8618 32.2282 30.6076 32.6533 30.189 32.758C29.7709 32.8625 29.3472 32.6087 29.242 32.191L29.2415 32.189L29.2375 32.1743C29.2337 32.16 29.2272 32.1369 29.2182 32.1063C29.2001 32.0449 29.1718 31.9542 29.1329 31.8442C29.054 31.6216 28.9359 31.3323 28.7769 31.0497C28.4251 30.4243 28.0423 30.1146 27.6662 30.1146C27.177 30.1146 26.7808 30.5108 26.7808 31C26.7808 32.0916 28.8963 32.9694 29.668 33.336C30.4703 33.7171 31.2778 34.0303 31.8881 34.249C32.1922 34.358 32.4452 34.4427 32.6212 34.4999C32.7091 34.5285 32.7778 34.5501 32.8238 34.5645L32.8754 34.5804L32.8877 34.5842L32.8904 34.585M32.8904 34.585C33.3036 34.709 33.5384 35.1446 33.4145 35.5579C33.2905 35.9711 32.855 36.2057 32.4417 36.0817C32.3401 36.0511 32.2391 36.0187 32.1382 35.9859C31.9497 35.9246 31.6818 35.8348 31.361 35.7199C30.7212 35.4906 29.862 35.158 28.9976 34.7474C28.141 34.3405 27.2413 33.8394 26.544 33.2641C25.8814 32.7175 25.2183 31.9533 25.2183 31" fill="#E0B531"/>
<defs>
<filter id="filter0_f_837_36167" x="0" y="0" width="68" height="68" filterUnits="userSpaceOnUse" color-interpolation-filters="sRGB">
<feFlood flood-opacity="0" result="BackgroundImageFix"/>
<feBlend mode="normal" in="SourceGraphic" in2="BackgroundImageFix" result="shape"/>
<feGaussianBlur stdDeviation="12" result="effect1_foregroundBlur_837_36167"/>
</filter>
</defs>
</svg>
