<svg width="72" height="72" viewBox="0 0 72 72" fill="none" xmlns="http://www.w3.org/2000/svg">
<path fill-rule="evenodd" clip-rule="evenodd" d="M41.1561 21.0997C40.8139 21.4724 40.4847 21.8545 40.1684 22.2455C37.1785 25.941 35.3377 30.4246 34.5124 35.1442C34.1676 37.1164 34 39.1299 34 41.1442H38C38 37.9147 39.2439 33.9538 41.121 30.7103C41.9925 29.2044 43.0006 27.8531 44.084 26.8015C44.2431 26.6471 44.4038 26.4991 44.566 26.3581C44.7096 26.2332 44.8543 26.1137 45 26C45.6956 26.7949 46.3664 27.6491 46.995 28.5561C47.5168 29.3092 48.0095 30.0987 48.4629 30.9208C50.2111 34.0909 51.375 37.7463 51.375 41.6731C51.375 45.851 49.9452 48.9435 48.0064 51.1684C45.5712 53.9628 42.333 55.3883 40.1165 55.8762L55.0769 58.5V66L17 66V58.5L31.6139 55.9147C29.4138 55.4701 26.0994 54.0637 23.6034 51.2386C21.6333 49.0088 20.1731 45.8952 20.1731 41.6731C20.1731 35.1943 23.6115 29.6063 27.0544 25.8145C28.6514 24.0556 30.2494 22.6832 31.5056 21.7877C31.0435 21.3161 30.6544 20.7727 30.3566 20.1758C29.9315 19.3239 29.6923 18.363 29.6923 17.3462C29.6923 13.8413 32.5336 11 36.0385 11C39.5434 11 42.3846 13.8413 42.3846 17.3462C42.3846 18.7506 41.9284 20.0485 41.1561 21.0997ZM24.0455 20.2857C23.8149 19.3431 23.6923 18.3584 23.6923 17.3462C23.6923 10.5275 29.2199 5 36.0385 5C42.8571 5 48.3846 10.5275 48.3846 17.3462C48.3846 18.5245 48.2182 19.6672 47.9078 20.7502C48.4999 21.078 49.0455 21.5119 49.5155 22.049C53.6569 26.782 57.375 33.6314 57.375 41.6731C57.375 46.0121 56.2679 49.5208 54.5861 52.3223L56.1134 52.5902C58.9834 53.0936 61.0769 55.5862 61.0769 58.5V66C61.0769 67.5913 60.4448 69.1174 59.3196 70.2427C58.1943 71.3679 56.6682 72 55.0769 72L17 72C13.6863 72 11 69.3137 11 66V58.5C11 55.5895 13.0888 53.0988 15.9548 52.5917L17.0094 52.4052C15.3004 49.5904 14.1731 46.0556 14.1731 41.6731C14.1731 35.3625 16.6164 29.9343 19.3935 25.8563C20.8528 23.7135 22.4727 21.8402 24.0455 20.2857Z" fill="#1A1D1F"/>
<path fill-rule="evenodd" clip-rule="evenodd" d="M41.1561 21.0997C40.8139 21.4724 40.4847 21.8545 40.1684 22.2455C37.1785 25.941 35.3377 30.4246 34.5124 35.1442C34.1676 37.1164 34 39.1299 34 41.1442H38C38 37.9147 39.2439 33.9538 41.121 30.7103C41.9925 29.2044 43.0006 27.8531 44.084 26.8015C44.2431 26.6471 44.4038 26.4991 44.566 26.3581C44.7096 26.2332 44.8543 26.1137 45 26C45.6956 26.7949 46.3664 27.6491 46.995 28.5561C47.5168 29.3092 48.0095 30.0987 48.4629 30.9208C50.2111 34.0909 51.375 37.7463 51.375 41.6731C51.375 45.851 49.9452 48.9435 48.0064 51.1684C45.5712 53.9628 42.333 55.3883 40.1165 55.8762L55.0769 58.5V66L17 66V58.5L31.6139 55.9147C29.4138 55.4701 26.0994 54.0637 23.6034 51.2386C21.6333 49.0088 20.1731 45.8952 20.1731 41.6731C20.1731 35.1943 23.6115 29.6063 27.0544 25.8145C28.6514 24.0556 30.2494 22.6832 31.5056 21.7877C31.0435 21.3161 30.6544 20.7727 30.3566 20.1758C29.9315 19.3239 29.6923 18.363 29.6923 17.3462C29.6923 13.8413 32.5336 11 36.0385 11C39.5434 11 42.3846 13.8413 42.3846 17.3462C42.3846 18.7506 41.9284 20.0485 41.1561 21.0997Z" fill="#F7F9FA"/>
</svg>
